<svg xmlns="http://www.w3.org/2000/svg" xmlns:xlink="http://www.w3.org/1999/xlink" width="500" zoomAndPan="magnify" viewBox="0 0 375 374.999991" height="500" preserveAspectRatio="xMidYMid meet" version="1.0"><defs><g/><clipPath id="09e3a04183"><path d="M 0.078125 7 L 184 7 L 184 191 L 0.078125 191 Z M 0.078125 7 " clip-rule="nonzero"/></clipPath><clipPath id="0e94f0f0f6"><rect x="0" width="216" y="0" height="217"/></clipPath></defs><rect x="-37.5" width="450" fill="#ffffff" y="-37.499999" height="449.999989" fill-opacity="1"/><rect x="-37.5" width="450" fill="#8a0000" y="-37.499999" height="449.999989" fill-opacity="1"/><g transform="matrix(1, 0, 0, 1, 94, 81)"><g clip-path="url(#0e94f0f0f6)"><g clip-path="url(#09e3a04183)"><g fill="#ffde00" fill-opacity="1"><g transform="translate(0.0820125, 216.756305)"><g><path d="M 0 -26.140625 L 0 -209.125 L 156.84375 -209.125 L 156.84375 -182.984375 L 182.984375 -182.984375 L 182.984375 -104.5625 L 156.84375 -104.5625 L 156.84375 -78.421875 L 52.28125 -78.421875 L 52.28125 -26.140625 Z M 52.28125 -104.5625 L 130.703125 -104.5625 L 130.703125 -182.984375 L 52.28125 -182.984375 Z M 52.28125 -104.5625 "/></g></g></g></g></g></g></svg>